<?xml version="1.0" encoding="utf-8"?>
<!-- Generator: Adobe Illustrator 23.0.3, SVG Export Plug-In . SVG Version: 6.00 Build 0)  -->
<svg version="1.1" id="Layer_1" xmlns="http://www.w3.org/2000/svg" xmlns:xlink="http://www.w3.org/1999/xlink" x="0px" y="0px"
	 viewBox="0 0 52 46.3" style="enable-background:new 0 0 52 46.3;" xml:space="preserve">
<style type="text/css">
	.st0{fill:#FFFFFF;}
</style>
<title></title>
<g>
	<g id="icon">
		<path class="st0" d="M25.4,5.4c0-1.6,0-3.1,0-4.7c0-0.4-0.3-0.8-0.8-0.8s-0.8,0.3-0.8,0.8c0,1.6,0,3.1,0,4.7
			c0,0.4,0.3,0.8,0.8,0.8S25.4,5.8,25.4,5.4z"/>
		<path class="st0" d="M39,11.6c1-1.2,2.1-2.2,3.3-3.2c0.8-0.6-0.3-1.7-1.1-1.1c-1.2,1-2.3,2-3.2,3.2C37.4,11.3,38.4,12.3,39,11.6z"
			/>
		<path class="st0" d="M45.2,25.6c1.2-0.2,2.5-0.2,3.7,0c1,0.1,1-1.4,0-1.5c-1.4-0.2-2.8-0.1-4.1,0.1C43.8,24.3,44.2,25.7,45.2,25.6
			z"/>
		<path class="st0" d="M9.9,38.7c-0.9,0.8-1.8,1.7-2.7,2.5c-0.7,0.6,0.3,1.7,1.1,1.1c0.9-0.8,1.8-1.6,2.7-2.5
			C11.6,39.1,10.6,38.1,9.9,38.7z"/>
		<path class="st0" d="M4.8,24c-1.3-0.1-2.7-0.1-4-0.1c-0.4,0-0.8,0.3-0.8,0.8s0.3,0.8,0.8,0.8c1.3,0,2.7,0,4,0.1
			C5.7,25.6,5.7,24.1,4.8,24z"/>
		<path class="st0" d="M9.7,10.9c0.7,0.7,1.8-0.4,1.1-1.1C9.9,9,9,8.1,8.1,7.2C7.4,6.6,6.4,7.6,7,8.3C7.9,9.2,8.8,10,9.7,10.9z"/>
		<path class="st0" d="M15,15.9c-0.6,1.1-1.1,2.3-1.3,3.6c-0.2,0.9,1.3,1.4,1.4,0.4c0.2-1.1,0.6-2.2,1.1-3.2
			C16.7,15.8,15.4,15,15,15.9z"/>
		<path class="st0" d="M17.4,17c-0.4-0.2-0.8-0.1-1,0.3c-0.3,0.7-0.6,1.4-0.8,2.2c-0.1,0.4,0.1,0.8,0.5,0.9c0.4,0.1,0.8-0.1,0.9-0.5
			c0.2-0.6,0.4-1.2,0.6-1.8C17.9,17.7,17.8,17.2,17.4,17z"/>
		<path class="st0" d="M47.1,36.8c0.8-4.4-1.3-9-5.6-10.5c0.8-6.3-2-11.5-7.3-15.1s-11.9-3.3-17.5-0.6c-6.4,3.1-10.1,10-8.9,17
			C8.6,34.3,14,39,20.2,40.8c0.7,6,9.9,5.5,14.4,5.4s13.5,1.6,16.6-2.8C53.5,40,50.5,35.8,47.1,36.8z M9.3,28.4
			c-1.5-6.7,1.8-13.6,8-16.5c4.8-2.3,10.4-2.8,15.1,0c5,2.9,8.2,8.3,7.5,14.1c-5.1-1-10,2.4-10.9,7.5c0,0.2-0.1,0.5-0.1,0.7
			c-3-1.5-6.6-0.3-8.1,2.6c-0.4,0.8-0.6,1.6-0.6,2.5C15,37.6,10.6,33.9,9.3,28.4z M46.8,44.2c-1.4,0.3-2.8,0.4-4.2,0.3
			c-2.7,0.1-5.3,0-8,0.1c-3.3,0.1-7.3,0.8-10.2-1c-6-3.7,0-11.7,4.8-7.6c0.5,0.4,1.3,0.2,1.3-0.5c-0.2-4.3,3.1-8,7.4-8.2
			c0.7,0,1.4,0,2.1,0.2c4.8,0.9,6.8,6,5.3,10.5c-0.2,0.6,0.6,1.2,1.1,0.8c2-1.5,5.2,1.2,3.1,4.3C48.7,43.7,47.8,44.1,46.8,44.2z"/>
	</g>
</g>
</svg>
