<?xml version="1.0"?>
<svg xmlns="http://www.w3.org/2000/svg" id="Layer_1" enable-background="new 0 0 56.69 56.69" height="512px" viewBox="0 0 56.69 56.69" width="512px"><g><path d="m49.98 20.434c.078-.601.117-1.168.117-1.72 0-7.641-6.217-13.857-13.859-13.857-4.576 0-8.874 2.298-11.442 6.058-1.289-.665-2.717-1.013-4.183-1.013-4.743 0-8.654 3.633-9.096 8.297-4.907.84-8.507 5.045-8.507 10.117 0 5.667 4.611 10.277 10.278 10.277h30.114c5.666 0 10.277-4.61 10.277-10.277.001-3.082-1.339-5.921-3.699-7.882zm-6.578 16.16h-30.113c-4.564 0-8.278-3.713-8.278-8.277 0-4.322 3.247-7.863 7.554-8.237l.911-.12v-.917c0-3.938 3.202-7.141 7.139-7.141 1.413 0 2.781.414 3.956 1.198l.885.59.534-.92c2.121-3.647 6.048-5.913 10.25-5.913 6.539 0 11.859 5.319 11.859 11.857 0 .618-.059 1.266-.18 1.981l-.102.606.494.365c2.141 1.583 3.369 4.006 3.369 6.651 0 4.564-3.713 8.277-8.278 8.277zm-25.799 13.244c0 1.104-.893 1.996-1.996 1.996s-1.996-.893-1.996-1.996.893-1.996 1.996-1.996 1.996.892 1.996 1.996zm6.088-7.906c0 .736-.597 1.334-1.333 1.334s-1.333-.598-1.333-1.334.597-1.332 1.333-1.332 1.333.595 1.333 1.332zm7.366 7.49c0 1.104-.893 1.996-1.996 1.996s-1.996-.893-1.996-1.996.893-1.996 1.996-1.996 1.996.892 1.996 1.996zm13.478 0c0 1.104-.893 1.996-1.996 1.996s-1.996-.893-1.996-1.996.893-1.996 1.996-1.996 1.996.892 1.996 1.996zm-7.428-7.49c0 .736-.596 1.334-1.332 1.334s-1.334-.598-1.334-1.334.598-1.332 1.334-1.332 1.332.595 1.332 1.332z" data-original="#000000" class="active-path" data-old_color="#000000" fill="#FFFFFF"/></g> </svg>
