<?xml version="1.0" encoding="utf-8"?>
<!-- Generator: Adobe Illustrator 23.0.3, SVG Export Plug-In . SVG Version: 6.00 Build 0)  -->
<svg version="1.1" id="Layer_1" xmlns="http://www.w3.org/2000/svg" xmlns:xlink="http://www.w3.org/1999/xlink" x="0px" y="0px"
	 viewBox="0 0 58.8 58.6" style="enable-background:new 0 0 58.8 58.6;" xml:space="preserve">
<style type="text/css">
	.st0{fill:#FFFFFF;}
</style>
<title></title>
<g>
	<g id="icon">
		<path class="st0" d="M42.7,15.1c-3.4-3.1-7.8-4.9-12.4-5.1C19.1,10.1,9.8,17.4,9,28.9S18.2,48.6,29,49c5.2,0.2,11.1-1,14.7-5.1
			c3.6-4.3,5.5-9.8,5.4-15.5C48.8,22.6,47.1,19.1,42.7,15.1z M42.6,42.8c-3.3,3.8-8.8,4.9-13.6,4.7c-9.8-0.4-18.9-7.6-18.5-18
			c0.4-10.9,9.2-17.9,19.8-18c4.2,0.2,8.3,1.8,11.4,4.7c3.8,3.5,5.7,7,5.9,12.2C47.7,33.6,45.9,38.7,42.6,42.8z"/>
		<path class="st0" d="M30,6.3c0-1.9,0-3.7,0-5.6C30,0.3,29.7,0,29.2,0s-0.8,0.3-0.8,0.8c0,1.9,0,3.7,0,5.6c0,0.4,0.3,0.8,0.8,0.8
			S30,6.7,30,6.3z"/>
		<path class="st0" d="M49.1,8.7c-1.4,1.1-2.7,2.4-3.9,3.8c-0.6,0.7,0.4,1.8,1.1,1.1c1.2-1.4,2.5-2.7,3.9-3.8
			C50.9,9.1,49.9,8.1,49.1,8.7z"/>
		<path class="st0" d="M58.1,28.6c-1.6-0.2-3.3-0.2-4.9,0.1c-1,0.1-0.5,1.6,0.4,1.5c1.5-0.2,3-0.2,4.5,0C59,30.2,59,28.8,58.1,28.6z
			"/>
		<path class="st0" d="M46.7,45.8c-0.7-0.6-1.8,0.4-1.1,1.1c1.2,1,2.3,2.1,3.4,3.2c0.7,0.7,1.7-0.4,1.1-1.1
			C49,47.9,47.9,46.9,46.7,45.8z"/>
		<path class="st0" d="M28.5,53.3v4.5c0,0.4,0.3,0.8,0.8,0.8s0.8-0.3,0.8-0.8v-4.5c0-0.4-0.3-0.8-0.8-0.7
			C28.9,52.6,28.5,52.9,28.5,53.3z"/>
		<path class="st0" d="M11.7,46.1c-1.1,1-2.2,2-3.3,3c-0.7,0.6,0.3,1.7,1.1,1.1c1.1-1,2.2-2,3.3-3C13.5,46.5,12.4,45.4,11.7,46.1z"
			/>
		<path class="st0" d="M5.5,28.6c-1.6-0.1-3.2-0.1-4.8-0.1c-0.4,0-0.8,0.3-0.8,0.8S0.3,30,0.7,30c1.6,0,3.2,0,4.8,0.1
			C6.5,30.2,6.5,28.7,5.5,28.6z"/>
		<path class="st0" d="M11.5,12.7c0.7,0.7,1.8-0.4,1.1-1.1c-1.1-1-2.1-2-3.2-3C8.7,7.9,7.7,9,8.4,9.6C9.4,10.7,10.5,11.7,11.5,12.7z
			"/>
		<path class="st0" d="M17.8,18.8c-0.7,1.3-1.3,2.8-1.5,4.3c-0.2,0.9,1.3,1.4,1.5,0.4c0.2-1.4,0.7-2.7,1.4-3.9
			C19.6,18.7,18.3,18,17.8,18.8z"/>
		<path class="st0" d="M20.6,20.2c-0.4-0.2-0.8-0.1-1,0.3c-0.4,0.8-0.7,1.7-0.9,2.5c-0.1,0.4,0.1,0.8,0.5,0.9
			c0.4,0.1,0.8-0.1,0.9-0.5c0.2-0.7,0.4-1.5,0.7-2.2C21,20.9,20.9,20.4,20.6,20.2z"/>
	</g>
</g>
</svg>
