<?xml version="1.0"?>
<svg xmlns="http://www.w3.org/2000/svg" id="Layer_1" enable-background="new 0 0 56.69 56.69" height="512px" viewBox="0 0 56.69 56.69" width="512px" class=""><g><g><path d="m25.346 8.123.012-.02c0-.001-.001-.005-.001-.005 0-.67 1.715-3.488 2.294-3.479.581.007 2.295 2.809 2.295 3.479v.005l.015.02h-.017c-.018 1.033-1.033 1.872-2.293 1.872-1.256 0-2.271-.839-2.292-1.872zm18.582 18.567v.015l.021-.014h.006c.668 0 3.472-1.713 3.477-2.294.008-.58-2.809-2.294-3.477-2.294-.002 0-.005.001-.006.001l-.021-.012v.013c-1.033.02-1.87 1.036-1.87 2.292 0 1.258.837 2.276 1.87 2.293zm-32.551-4.582v-.016l-.021.013c-.001 0-.004 0-.005 0-.669 0-3.472 1.714-3.479 2.294-.009.58 2.81 2.295 3.479 2.295.001 0 .004-.001.005-.001l.021.012v-.014c1.033-.019 1.871-1.036 1.871-2.292 0-1.257-.838-2.273-1.871-2.291zm26.461-7.895c.889.89 2.199 1.016 2.942.297l.011.01.006-.021c.002-.001.004-.003.005-.005.471-.472 1.242-3.666.835-4.082-.404-.415-3.607.365-4.079.838-.004.002-.005.003-.005.006l-.023.004.009.008c-.718.746-.59 2.056.299 2.945zm-20.087 23.332.022-.008-.008-.006c.719-.746.589-2.059-.299-2.945-.89-.891-2.198-1.016-2.942-.297l-.012-.012-.004.023c-.002 0-.004.004-.004.004-.474.473-1.245 3.666-.839 4.08.406.42 3.61-.363 4.082-.836.003.001.004-.003.004-.003zm36.325 7.641c0 4.243-3.453 7.695-7.697 7.695h-21.733c-4.244 0-7.697-3.452-7.697-7.695 0-3.726 2.594-6.826 6.162-7.537.056-.455.16-.896.301-1.319-5.019-1.775-8.435-6.526-8.435-11.931 0-1.822.396-3.611 1.152-5.259h-8.022c-3.029 0-5.493-2.464-5.493-5.493s2.464-5.493 5.493-5.493h.107c.893-2.56 3.343-4.344 6.108-4.344 2.036 0 3.919.943 5.14 2.548 3.167.081 5.763 2.478 6.167 5.557.679-.113 1.356-.19 2.022-.19 6.988 0 12.674 5.686 12.674 12.675 0 1.264-.205 2.497-.574 3.692.479-.069.964-.116 1.456-.116 5.67 0 10.282 4.611 10.282 10.279 0 .364-.022.736-.069 1.129 1.674 1.453 2.656 3.58 2.656 5.802zm-30.392-32.504c-.038-2.39-1.987-4.325-4.386-4.325h-.908l-.295-.465c-.825-1.304-2.236-2.082-3.772-2.082-2.103 0-3.941 1.492-4.372 3.549l-.166.795h-1.678c-1.926 0-3.493 1.567-3.493 3.493s1.568 3.493 3.493 3.493h9.151 2.04c.338-.019 1.875-.141 3.104-1.427 1.171-1.224 1.268-2.673 1.282-3.031zm-5.311 6.455c-.914 1.607-1.396 3.414-1.396 5.259 0 4.635 2.983 8.701 7.339 10.13.443-.518 1.719-1.87 3.89-2.453 2.206-.592 4.015-.034 4.653.196.367-.565.97-1.351 1.894-2.09 1.003-.802 1.984-1.227 2.646-1.455.616-1.376.928-2.831.928-4.328 0-5.886-4.788-10.675-10.674-10.675-.679 0-1.373.073-2.071.214-.18.615-.774 2.349-2.504 3.692-1.976 1.534-4.109 1.531-4.705 1.51zm15.145 15.889-.885-.59c-.34-.227-.704-.408-1.085-.542 0 0-.792-.278-1.615-.274-1.277.006-2.724.703-3.679 1.879-1.383 1.702-1.138 3.672-1.091 4.006l-1.014.017c-2.963.257-5.198 2.693-5.198 5.668 0 3.141 2.556 5.695 5.697 5.695h21.733c3.14-.004 5.695-2.559 5.695-5.699 0-1.819-.846-3.488-2.319-4.576l-.494-.365.102-.605c.085-.503.126-.956.126-1.385 0-4.565-3.716-8.279-8.282-8.279-.843.052-2.536.272-4.304 1.365-2.014 1.245-3.001 2.929-3.387 3.685z" data-original="#000000" class="active-path" data-old_color="#000000" fill="#FFFFFF"/></g></g> </svg>
