<?xml version="1.0" encoding="utf-8"?>
<!-- Generator: Adobe Illustrator 23.0.3, SVG Export Plug-In . SVG Version: 6.00 Build 0)  -->
<svg version="1.1" id="Layer_1" xmlns="http://www.w3.org/2000/svg" xmlns:xlink="http://www.w3.org/1999/xlink" x="0px" y="0px"
	 viewBox="0 0 58.6 46.7" style="enable-background:new 0 0 58.6 46.7;" xml:space="preserve">
<style type="text/css">
	.st0{fill:#FFFFFF;}
</style>
<title></title>
<g>
	<g id="icon">
		<path class="st0" d="M49.9,30.8c0.8-2.6,0-5.4-2.1-7.1c-2.1-1.9-5.3-2.1-7.6-0.4c-0.6-7.8-8.8-11.9-16.2-10.7
			c-7,1.2-13.4,8.3-11.8,15.4C5.9,25-2.2,31.9,0.6,39.2c1.7,4.2,6.9,6.2,11,6.7c5.9,0.7,11.9,1,17.8,0.8c4.6-0.1,9.2,0,13.9-0.2
			c3.9-0.1,8.6,0.3,11.8-2.2C61.7,39.2,57.8,29.3,49.9,30.8z M55.3,42.1c-2.9,3.1-7.2,2.8-11.1,2.9c-5,0.2-9.9,0.1-14.9,0.2
			c-3.2,0-6.5-0.2-9.7-0.3c-3.4-0.2-7,0-10.3-0.9c-4.2-1.1-8.5-3.9-7.6-8.8C2.2,33,2.9,31.1,5,29.9c2.7-1.5,5.9-1.6,8.2,0.6
			c0.3,0.3,0.8,0.3,1.1,0c0.2-0.2,0.3-0.6,0.1-0.9c-3.8-7.6,4.2-15.2,11.4-15.7c6.6-0.4,13.2,3.7,12.9,10.9c0,0.4,0.4,0.7,0.8,0.7
			c0.2,0,0.4-0.1,0.5-0.2c4.5-4,11.3,1.1,7.9,6.3c-0.2,0.4-0.1,0.8,0.3,1c0.2,0.1,0.4,0.1,0.5,0.1c2.6-1,5.5-0.8,7.4,1.5
			S57,40.2,55.3,42.1L55.3,42.1z"/>
		<path class="st0" d="M18,20.9c-0.7,1.3-1.3,2.8-1.5,4.3c-0.2,0.9,1.3,1.4,1.5,0.4c0.2-1.4,0.7-2.7,1.4-3.9
			C19.7,20.9,18.4,20.1,18,20.9z"/>
		<path class="st0" d="M20.7,22.3c-0.4-0.2-0.8-0.1-1,0.3c-0.4,0.8-0.7,1.7-0.9,2.5c-0.1,0.4,0.1,0.8,0.5,0.9
			c0.4,0.1,0.8-0.1,0.9-0.5c0.2-0.7,0.4-1.5,0.7-2.2C21.2,23,21.1,22.5,20.7,22.3z"/>
		<path class="st0" d="M41.3,16.5c3.2,1.9,8.4,1,11.9,0.9s6.4-1,5-5C57,9,54,8.4,51.4,10.1c-2-5.4-9.5-6.8-12-0.7
			C38.4,11.8,38.9,15,41.3,16.5z M40.5,10.7C41,9,42.3,7.5,44,7c3.2-0.9,5.6,1.8,6.2,4.6c0.1,0.4,0.5,0.6,0.9,0.5
			c0.1,0,0.2-0.1,0.3-0.2c1.7-1.5,6.3-0.5,5.6,2.4c-0.4,1.6-2.7,1.5-3.9,1.6c-2.7,0.1-5.7,0.5-8.3,0C41.4,15.6,40,13.9,40.5,10.7z"
			/>
		<path class="st0" d="M11.4,11.3c2.6-0.1,8.3,1,9.5-2.4c0.7-2-0.8-3.3-2.5-3.2C19.9-0.5,9-2.5,8.1,4.1C6.2,3.4,4.2,4.3,3.6,6.2
			c-0.1,0.3-0.2,0.6-0.2,1C3,11.5,8.4,11.4,11.4,11.3z M8.4,5.9c0.4,0.2,0.8,0.1,1-0.3c0.1-0.1,0.1-0.2,0.1-0.4
			c-0.1-2.1,2.3-5.1,4.8-3.9c1.9,0.9,3.2,2.9,2.2,5c-0.3,0.7,0.3,1.2,1,1c2.7-0.7,2.2,2.3-0.5,2.3c-0.4,0-1.3,0.1-1.8,0.1
			c-1.3,0-2.6,0-3.9,0C9.9,9.9,8.5,9.9,7.1,9.6C2.9,8.2,6,4.2,8.4,5.9L8.4,5.9z"/>
	</g>
</g>
</svg>
