<?xml version="1.0" encoding="utf-8"?>
<!-- Generator: Adobe Illustrator 23.0.3, SVG Export Plug-In . SVG Version: 6.00 Build 0)  -->
<svg version="1.1" id="Layer_1" xmlns="http://www.w3.org/2000/svg" xmlns:xlink="http://www.w3.org/1999/xlink" x="0px" y="0px"
	 viewBox="0 0 58.5 47.8" style="enable-background:new 0 0 58.5 47.8;" xml:space="preserve">
<style type="text/css">
	.st0{fill:#FFFFFF;}
</style>
<title></title>
<g>
	<g id="icon">
		<path class="st0" d="M36.5,4.2c0.2,0.9,1.6,0.6,1.5-0.4s-0.4-2.2-0.7-3.2S35.6,0,35.8,0.9S36.3,3.1,36.5,4.2z"/>
		<path class="st0" d="M48.1,6.2c0.5-0.9,1-1.7,1.7-2.5c0.6-0.7-0.5-1.8-1.1-1.1c-0.7,0.9-1.4,1.8-1.9,2.8
			C46.4,6.3,47.7,7.1,48.1,6.2z"/>
		<path class="st0" d="M54.1,15.1c0.8-0.3,1.6-0.5,2.5-0.6c1-0.1,1-1.6,0-1.5c-1,0.1-2,0.3-2.9,0.6C52.8,14,53.2,15.4,54.1,15.1z"/>
		<path class="st0" d="M51.4,25.6c0.8,0.4,1.6,0.9,2.4,1.4c0.8,0.5,1.5-0.8,0.8-1.3c-0.8-0.5-1.5-1-2.3-1.5
			C51.3,23.8,50.5,25.1,51.4,25.6z"/>
		<path class="st0" d="M25.5,8.6c0.7,0.5,1.5,0.9,2.2,1.4c0.4,0.2,0.8,0.1,1-0.3c0.2-0.4,0.1-0.8-0.3-1c-0.7-0.4-1.5-0.9-2.2-1.4
			C25.4,6.8,24.7,8.1,25.5,8.6z"/>
		<path class="st0" d="M49.9,31.9c0.7-2.1,0.2-4.4-1.2-6.2c2.7-2.9,3.6-7.4,3-11.2c-0.5-3.1-2.6-5.6-5.2-7.3
			c-6.4-4.2-15.8-0.8-18.1,6.3c-1.5-0.2-2.9-0.1-4.4,0.1c-7,1.2-13.4,8.3-11.8,15.4C5.9,26.1-2.2,33,0.6,40.2
			c1.7,4.2,6.9,6.2,11,6.7c5.9,0.7,11.9,1,17.8,0.8c4.6-0.1,9.2,0,13.9-0.2c3.9-0.1,8.6,0.3,11.8-2.2C61.7,40.3,57.8,30.4,49.9,31.9
			z M45.8,8.6c2.5,1.5,4.2,4.1,4.6,7c0.2,3.1-0.5,6.8-2.7,9.1c-2.1-1.9-5.3-2-7.5-0.3c-0.5-5.7-5-9.4-10.2-10.6
			C32.1,7.8,40.3,4.9,45.8,8.6z M55.3,43.2c-2.9,3.1-7.2,2.8-11.1,2.9c-5,0.2-9.9,0.1-14.9,0.2c-3.2,0-6.5-0.2-9.7-0.3
			c-3.4-0.2-7,0-10.3-0.9c-4.2-1.1-8.5-3.9-7.6-8.8C2.2,34.1,2.9,32.2,5,31c2.7-1.5,5.9-1.6,8.2,0.6c0.3,0.3,0.8,0.3,1.1,0
			c0.2-0.2,0.3-0.6,0.1-0.9C10.6,23,18.6,15.5,25.8,15c6.6-0.4,13.2,3.7,12.9,10.9c0,0.4,0.4,0.7,0.8,0.7c0.2,0,0.4-0.1,0.5-0.2
			c4.5-4,11.3,1.1,7.9,6.3c-0.2,0.4-0.1,0.8,0.3,1c0.2,0.1,0.4,0.1,0.5,0.1c2.6-1,5.5-0.8,7.4,1.5S57,41.3,55.3,43.2L55.3,43.2z"/>
		<path class="st0" d="M18,22c-0.7,1.3-1.3,2.8-1.5,4.3c-0.2,0.9,1.3,1.4,1.5,0.4c0.2-1.4,0.7-2.7,1.4-3.9
			C19.7,21.9,18.4,21.2,18,22z"/>
		<path class="st0" d="M20.7,23.4c-0.4-0.2-0.8-0.1-1,0.3c-0.4,0.8-0.7,1.7-0.9,2.5c-0.1,0.4,0.1,0.8,0.5,0.9
			c0.4,0.1,0.8-0.1,0.9-0.5c0.2-0.7,0.4-1.5,0.7-2.2C21.2,24.1,21,23.6,20.7,23.4z"/>
	</g>
</g>
</svg>
